<svg width="1680" height="885" xmlns="http://www.w3.org/2000/svg"><g><path d="M-16,-24L-46,39L98,64Z" fill="#f5f9ff" stroke="#f5f9ff" fill-opacity="1" stroke-opacity="1"/><path d="M-16,-24L98,64L105,-108Z" fill="#f4f7fd" stroke="#f4f7fd" fill-opacity="1" stroke-opacity="1"/><path d="M105,-108L98,64L192,-88Z" fill="#eff5fb" stroke="#eff5fb" fill-opacity="1" stroke-opacity="1"/><path d="M105,-108L192,-88L362,-97Z" fill="#eaf2f9" stroke="#eaf2f9" fill-opacity="1" stroke-opacity="1"/><path d="M105,-108L362,-97L1765,-97Z" fill="#bfdbed" stroke="#bfdbed" fill-opacity="1" stroke-opacity="1"/><path d="M192,-88L98,64L229,97Z" fill="#ebf3fa" stroke="#ebf3fa" fill-opacity="1" stroke-opacity="1"/><path d="M192,-88L229,97L284,21Z" fill="#e9f1f9" stroke="#e9f1f9" fill-opacity="1" stroke-opacity="1"/><path d="M192,-88L284,21L362,-97Z" fill="#e7f0f7" stroke="#e7f0f7" fill-opacity="1" stroke-opacity="1"/><path d="M362,-97L284,21L471,68Z" fill="#e1edf5" stroke="#e1edf5" fill-opacity="1" stroke-opacity="1"/><path d="M362,-97L471,68L509,-20Z" fill="#dceaf3" stroke="#dceaf3" fill-opacity="1" stroke-opacity="1"/><path d="M362,-97L509,-20L573,-40Z" fill="#d8e8f2" stroke="#d8e8f2" fill-opacity="1" stroke-opacity="1"/><path d="M362,-97L573,-40L757,-71Z" fill="#d0e4f0" stroke="#d0e4f0" fill-opacity="1" stroke-opacity="1"/><path d="M362,-97L757,-71L1072,-70Z" fill="#c0dced" stroke="#c0dced" fill-opacity="1" stroke-opacity="1"/><path d="M362,-97L1072,-70L1181,-71Z" fill="#b2d4ea" stroke="#b2d4ea" fill-opacity="1" stroke-opacity="1"/><path d="M362,-97L1181,-71L1765,-97Z" fill="#9ec4e0" stroke="#9ec4e0" fill-opacity="1" stroke-opacity="1"/><path d="M509,-20L471,68L544,14Z" fill="#d4e7f1" stroke="#d4e7f1" fill-opacity="1" stroke-opacity="1"/><path d="M509,-20L544,14L573,-40Z" fill="#d2e5f1" stroke="#d2e5f1" fill-opacity="1" stroke-opacity="1"/><path d="M573,-40L544,14L692,12Z" fill="#cce2f0" stroke="#cce2f0" fill-opacity="1" stroke-opacity="1"/><path d="M573,-40L692,12L757,-71Z" fill="#c5dfee" stroke="#c5dfee" fill-opacity="1" stroke-opacity="1"/><path d="M757,-71L692,12L798,91Z" fill="#bedbed" stroke="#bedbed" fill-opacity="1" stroke-opacity="1"/><path d="M757,-71L798,91L836,-65Z" fill="#b9d9ec" stroke="#b9d9ec" fill-opacity="1" stroke-opacity="1"/><path d="M757,-71L836,-65L1072,-70Z" fill="#b1d3e9" stroke="#b1d3e9" fill-opacity="1" stroke-opacity="1"/><path d="M836,-65L798,91L942,-57Z" fill="#b4d5ea" stroke="#b4d5ea" fill-opacity="1" stroke-opacity="1"/><path d="M836,-65L942,-57L1072,-70Z" fill="#accfe6" stroke="#accfe6" fill-opacity="1" stroke-opacity="1"/><path d="M942,-57L798,91L1003,15Z" fill="#aed1e8" stroke="#aed1e8" fill-opacity="1" stroke-opacity="1"/><path d="M942,-57L1003,15L1072,-70Z" fill="#a7cbe4" stroke="#a7cbe4" fill-opacity="1" stroke-opacity="1"/><path d="M1072,-70L1003,15L1080,44Z" fill="#a3c7e2" stroke="#a3c7e2" fill-opacity="1" stroke-opacity="1"/><path d="M1072,-70L1080,44L1181,-71Z" fill="#9dc3e0" stroke="#9dc3e0" fill-opacity="1" stroke-opacity="1"/><path d="M1181,-71L1080,44L1246,83Z" fill="#97bfde" stroke="#97bfde" fill-opacity="1" stroke-opacity="1"/><path d="M1181,-71L1246,83L1317,-53Z" fill="#91b9db" stroke="#91b9db" fill-opacity="1" stroke-opacity="1"/><path d="M1181,-71L1317,-53L1475,-55Z" fill="#8bb4d8" stroke="#8bb4d8" fill-opacity="1" stroke-opacity="1"/><path d="M1181,-71L1475,-55L1765,-97Z" fill="#80a9d2" stroke="#80a9d2" fill-opacity="1" stroke-opacity="1"/><path d="M1317,-53L1246,83L1381,107Z" fill="#88b4d8" stroke="#88b4d8" fill-opacity="1" stroke-opacity="1"/><path d="M1317,-53L1381,107L1475,-55Z" fill="#85afd5" stroke="#85afd5" fill-opacity="1" stroke-opacity="1"/><path d="M1475,-55L1381,107L1505,81Z" fill="#7daad3" stroke="#7daad3" fill-opacity="1" stroke-opacity="1"/><path d="M1475,-55L1505,81L1573,94Z" fill="#7da6d0" stroke="#7da6d0" fill-opacity="1" stroke-opacity="1"/><path d="M1475,-55L1573,94L1637,-67Z" fill="#80a2ce" stroke="#80a2ce" fill-opacity="1" stroke-opacity="1"/><path d="M1475,-55L1637,-67L1765,-97Z" fill="#809ecc" stroke="#809ecc" fill-opacity="1" stroke-opacity="1"/><path d="M1637,-67L1573,94L1742,86Z" fill="#7d9ccb" stroke="#7d9ccb" fill-opacity="1" stroke-opacity="1"/><path d="M1637,-67L1742,86L1765,-97Z" fill="#8097c8" stroke="#8097c8" fill-opacity="1" stroke-opacity="1"/><path d="M1765,-97L1742,86L1799,727Z" fill="#6d91c6" stroke="#6d91c6" fill-opacity="1" stroke-opacity="1"/><path d="M-46,39L-114,531L-58,204Z" fill="#e5f8ff" stroke="#e5f8ff" fill-opacity="1" stroke-opacity="1"/><path d="M-46,39L-58,204L50,180Z" fill="#effaff" stroke="#effaff" fill-opacity="1" stroke-opacity="1"/><path d="M-46,39L50,180L98,64Z" fill="#eff8fe" stroke="#eff8fe" fill-opacity="1" stroke-opacity="1"/><path d="M98,64L50,180L229,97Z" fill="#e8f5fc" stroke="#e8f5fc" fill-opacity="1" stroke-opacity="1"/><path d="M229,97L50,180L146,278Z" fill="#e2f5fb" stroke="#e2f5fb" fill-opacity="1" stroke-opacity="1"/><path d="M229,97L146,278L247,246Z" fill="#ddf2f9" stroke="#ddf2f9" fill-opacity="1" stroke-opacity="1"/><path d="M229,97L247,246L356,154Z" fill="#dcf0f7" stroke="#dcf0f7" fill-opacity="1" stroke-opacity="1"/><path d="M229,97L356,154L284,21Z" fill="#e0f0f7" stroke="#e0f0f7" fill-opacity="1" stroke-opacity="1"/><path d="M284,21L356,154L471,68Z" fill="#dcedf5" stroke="#dcedf5" fill-opacity="1" stroke-opacity="1"/><path d="M471,68L356,154L491,249Z" fill="#d2eaf3" stroke="#d2eaf3" fill-opacity="1" stroke-opacity="1"/><path d="M471,68L491,249L584,171Z" fill="#cae7f1" stroke="#cae7f1" fill-opacity="1" stroke-opacity="1"/><path d="M471,68L584,171L544,14Z" fill="#cee6f1" stroke="#cee6f1" fill-opacity="1" stroke-opacity="1"/><path d="M544,14L584,171L692,12Z" fill="#c8e2ef" stroke="#c8e2ef" fill-opacity="1" stroke-opacity="1"/><path d="M692,12L584,171L696,170Z" fill="#bfe0ee" stroke="#bfe0ee" fill-opacity="1" stroke-opacity="1"/><path d="M692,12L696,170L798,91Z" fill="#badced" stroke="#badced" fill-opacity="1" stroke-opacity="1"/><path d="M798,91L696,170L797,225Z" fill="#b2daec" stroke="#b2daec" fill-opacity="1" stroke-opacity="1"/><path d="M798,91L797,225L988,190Z" fill="#a8d5ea" stroke="#a8d5ea" fill-opacity="1" stroke-opacity="1"/><path d="M798,91L988,190L1003,15Z" fill="#a7d0e7" stroke="#a7d0e7" fill-opacity="1" stroke-opacity="1"/><path d="M1003,15L988,190L1080,44Z" fill="#a0c9e4" stroke="#a0c9e4" fill-opacity="1" stroke-opacity="1"/><path d="M1080,44L988,190L1116,249Z" fill="#97c7e2" stroke="#97c7e2" fill-opacity="1" stroke-opacity="1"/><path d="M1080,44L1116,249L1246,83Z" fill="#92c0df" stroke="#92c0df" fill-opacity="1" stroke-opacity="1"/><path d="M1246,83L1116,249L1280,214Z" fill="#88bcdc" stroke="#88bcdc" fill-opacity="1" stroke-opacity="1"/><path d="M1246,83L1280,214L1376,177Z" fill="#82b5d9" stroke="#82b5d9" fill-opacity="1" stroke-opacity="1"/><path d="M1246,83L1376,177L1381,107Z" fill="#81b3d7" stroke="#81b3d7" fill-opacity="1" stroke-opacity="1"/><path d="M1381,107L1376,177L1492,200Z" fill="#77add4" stroke="#77add4" fill-opacity="1" stroke-opacity="1"/><path d="M1381,107L1492,200L1505,81Z" fill="#77aad2" stroke="#77aad2" fill-opacity="1" stroke-opacity="1"/><path d="M1505,81L1492,200L1573,94Z" fill="#77a5d0" stroke="#77a5d0" fill-opacity="1" stroke-opacity="1"/><path d="M1573,94L1492,200L1652,201Z" fill="#75a2ce" stroke="#75a2ce" fill-opacity="1" stroke-opacity="1"/><path d="M1573,94L1652,201L1742,86Z" fill="#779ccb" stroke="#779ccb" fill-opacity="1" stroke-opacity="1"/><path d="M1742,86L1652,201L1732,234Z" fill="#7498c9" stroke="#7498c9" fill-opacity="1" stroke-opacity="1"/><path d="M1742,86L1732,234L1799,727Z" fill="#5486c7" stroke="#5486c7" fill-opacity="1" stroke-opacity="1"/><path d="M-58,204L-114,531L-62,464Z" fill="#c5e8ff" stroke="#c5e8ff" fill-opacity="1" stroke-opacity="1"/><path d="M-58,204L-62,464L-14,286Z" fill="#d5f0ff" stroke="#d5f0ff" fill-opacity="1" stroke-opacity="1"/><path d="M-58,204L-14,286L50,180Z" fill="#e8f9ff" stroke="#e8f9ff" fill-opacity="1" stroke-opacity="1"/><path d="M50,180L-14,286L146,278Z" fill="#dff4fe" stroke="#dff4fe" fill-opacity="1" stroke-opacity="1"/><path d="M247,246L146,278L221,487Z" fill="#c3e6f9" stroke="#c3e6f9" fill-opacity="1" stroke-opacity="1"/><path d="M247,246L221,487L402,303Z" fill="#bbe2f7" stroke="#bbe2f7" fill-opacity="1" stroke-opacity="1"/><path d="M247,246L402,303L379,274Z" fill="#c8e8f5" stroke="#c8e8f5" fill-opacity="1" stroke-opacity="1"/><path d="M247,246L379,274L356,154Z" fill="#d4eef6" stroke="#d4eef6" fill-opacity="1" stroke-opacity="1"/><path d="M356,154L379,274L491,249Z" fill="#cfebf4" stroke="#cfebf4" fill-opacity="1" stroke-opacity="1"/><path d="M491,249L379,274L402,303Z" fill="#c3e5f3" stroke="#c3e5f3" fill-opacity="1" stroke-opacity="1"/><path d="M491,249L402,303L495,451Z" fill="#b2ddf2" stroke="#b2ddf2" fill-opacity="1" stroke-opacity="1"/><path d="M491,249L495,451L596,379Z" fill="#a6d7f1" stroke="#a6d7f1" fill-opacity="1" stroke-opacity="1"/><path d="M491,249L596,379L584,171Z" fill="#b8e0f0" stroke="#b8e0f0" fill-opacity="1" stroke-opacity="1"/><path d="M584,171L596,379L696,170Z" fill="#b7dfef" stroke="#b7dfef" fill-opacity="1" stroke-opacity="1"/><path d="M696,170L596,379L770,357Z" fill="#a3d5ee" stroke="#a3d5ee" fill-opacity="1" stroke-opacity="1"/><path d="M696,170L770,357L797,225Z" fill="#a8d8ec" stroke="#a8d8ec" fill-opacity="1" stroke-opacity="1"/><path d="M797,225L770,357L867,344Z" fill="#96cfeb" stroke="#96cfeb" fill-opacity="1" stroke-opacity="1"/><path d="M797,225L867,344L988,190Z" fill="#9bd0e9" stroke="#9bd0e9" fill-opacity="1" stroke-opacity="1"/><path d="M988,190L867,344L960,354Z" fill="#8dc8e7" stroke="#8dc8e7" fill-opacity="1" stroke-opacity="1"/><path d="M988,190L960,354L1097,315Z" fill="#88c3e4" stroke="#88c3e4" fill-opacity="1" stroke-opacity="1"/><path d="M988,190L1097,315L1116,249Z" fill="#8cc3e2" stroke="#8cc3e2" fill-opacity="1" stroke-opacity="1"/><path d="M1116,249L1097,315L1243,352Z" fill="#78b7de" stroke="#78b7de" fill-opacity="1" stroke-opacity="1"/><path d="M1116,249L1243,352L1280,214Z" fill="#7ab6dc" stroke="#7ab6dc" fill-opacity="1" stroke-opacity="1"/><path d="M1280,214L1243,352L1329,332Z" fill="#6eaed9" stroke="#6eaed9" fill-opacity="1" stroke-opacity="1"/><path d="M1280,214L1329,332L1376,177Z" fill="#77b1d8" stroke="#77b1d8" fill-opacity="1" stroke-opacity="1"/><path d="M1376,177L1329,332L1492,200Z" fill="#72add5" stroke="#72add5" fill-opacity="1" stroke-opacity="1"/><path d="M1492,200L1329,332L1533,272Z" fill="#66a5d3" stroke="#66a5d3" fill-opacity="1" stroke-opacity="1"/><path d="M1492,200L1533,272L1652,201Z" fill="#70a2cf" stroke="#70a2cf" fill-opacity="1" stroke-opacity="1"/><path d="M1652,201L1533,272L1679,320Z" fill="#679acc" stroke="#679acc" fill-opacity="1" stroke-opacity="1"/><path d="M1652,201L1679,320L1706,286Z" fill="#6695ca" stroke="#6695ca" fill-opacity="1" stroke-opacity="1"/><path d="M1652,201L1706,286L1732,234Z" fill="#6d97c9" stroke="#6d97c9" fill-opacity="1" stroke-opacity="1"/><path d="M1732,234L1706,286L1721,429Z" fill="#5c8cc8" stroke="#5c8cc8" fill-opacity="1" stroke-opacity="1"/><path d="M1732,234L1721,429L1799,727Z" fill="#3c79c5" stroke="#3c79c5" fill-opacity="1" stroke-opacity="1"/><path d="M-14,286L-62,464L39,417Z" fill="#c4e8ff" stroke="#c4e8ff" fill-opacity="1" stroke-opacity="1"/><path d="M-14,286L39,417L60,361Z" fill="#c9eafe" stroke="#c9eafe" fill-opacity="1" stroke-opacity="1"/><path d="M-14,286L60,361L146,278Z" fill="#d1eefd" stroke="#d1eefd" fill-opacity="1" stroke-opacity="1"/><path d="M60,361L39,417L221,487Z" fill="#b5e0fc" stroke="#b5e0fc" fill-opacity="1" stroke-opacity="1"/><path d="M60,361L221,487L146,278Z" fill="#bee4fb" stroke="#bee4fb" fill-opacity="1" stroke-opacity="1"/><path d="M402,303L221,487L355,498Z" fill="#a7d8f6" stroke="#a7d8f6" fill-opacity="1" stroke-opacity="1"/><path d="M402,303L355,498L495,451Z" fill="#a4d6f3" stroke="#a4d6f3" fill-opacity="1" stroke-opacity="1"/><path d="M596,379L495,451L580,500Z" fill="#91cdf0" stroke="#91cdf0" fill-opacity="1" stroke-opacity="1"/><path d="M596,379L580,500L669,468Z" fill="#8ac9ef" stroke="#8ac9ef" fill-opacity="1" stroke-opacity="1"/><path d="M596,379L669,468L770,357Z" fill="#8ecbee" stroke="#8ecbee" fill-opacity="1" stroke-opacity="1"/><path d="M770,357L669,468L854,477Z" fill="#7fc3ec" stroke="#7fc3ec" fill-opacity="1" stroke-opacity="1"/><path d="M770,357L854,477L867,344Z" fill="#81c5eb" stroke="#81c5eb" fill-opacity="1" stroke-opacity="1"/><path d="M867,344L854,477L960,354Z" fill="#7cc0e9" stroke="#7cc0e9" fill-opacity="1" stroke-opacity="1"/><path d="M960,354L854,477L929,500Z" fill="#6fb9e8" stroke="#6fb9e8" fill-opacity="1" stroke-opacity="1"/><path d="M960,354L929,500L1059,429Z" fill="#6cb6e5" stroke="#6cb6e5" fill-opacity="1" stroke-opacity="1"/><path d="M960,354L1059,429L1097,315Z" fill="#75b9e3" stroke="#75b9e3" fill-opacity="1" stroke-opacity="1"/><path d="M1097,315L1059,429L1188,482Z" fill="#65aee0" stroke="#65aee0" fill-opacity="1" stroke-opacity="1"/><path d="M1097,315L1188,482L1243,352Z" fill="#65adde" stroke="#65adde" fill-opacity="1" stroke-opacity="1"/><path d="M1243,352L1188,482L1320,552Z" fill="#4d9ed9" stroke="#4d9ed9" fill-opacity="1" stroke-opacity="1"/><path d="M1243,352L1320,552L1408,414Z" fill="#4b9cd8" stroke="#4b9cd8" fill-opacity="1" stroke-opacity="1"/><path d="M1243,352L1408,414L1329,332Z" fill="#5ba4d8" stroke="#5ba4d8" fill-opacity="1" stroke-opacity="1"/><path d="M1329,332L1408,414L1533,272Z" fill="#599fd4" stroke="#599fd4" fill-opacity="1" stroke-opacity="1"/><path d="M1533,272L1408,414L1524,453Z" fill="#4e97d1" stroke="#4e97d1" fill-opacity="1" stroke-opacity="1"/><path d="M1533,272L1524,453L1624,455Z" fill="#4b90ce" stroke="#4b90ce" fill-opacity="1" stroke-opacity="1"/><path d="M1533,272L1624,455L1679,320Z" fill="#5491cc" stroke="#5491cc" fill-opacity="1" stroke-opacity="1"/><path d="M1679,320L1624,455L1721,429Z" fill="#4987ca" stroke="#4987ca" fill-opacity="1" stroke-opacity="1"/><path d="M1679,320L1721,429L1706,286Z" fill="#558bc9" stroke="#558bc9" fill-opacity="1" stroke-opacity="1"/><path d="M-62,464L-114,531L18,600Z" fill="#a9d5f7" stroke="#a9d5f7" fill-opacity="1" stroke-opacity="1"/><path d="M-62,464L18,600L39,417Z" fill="#add9fb" stroke="#add9fb" fill-opacity="1" stroke-opacity="1"/><path d="M39,417L18,600L221,487Z" fill="#a6d5f8" stroke="#a6d5f8" fill-opacity="1" stroke-opacity="1"/><path d="M221,487L18,600L236,625Z" fill="#94c7ef" stroke="#94c7ef" fill-opacity="1" stroke-opacity="1"/><path d="M221,487L236,625L355,498Z" fill="#95c9ef" stroke="#95c9ef" fill-opacity="1" stroke-opacity="1"/><path d="M355,498L236,625L365,594Z" fill="#8ac2eb" stroke="#8ac2eb" fill-opacity="1" stroke-opacity="1"/><path d="M355,498L365,594L478,590Z" fill="#88c1e9" stroke="#88c1e9" fill-opacity="1" stroke-opacity="1"/><path d="M355,498L478,590L495,451Z" fill="#8ec7ed" stroke="#8ec7ed" fill-opacity="1" stroke-opacity="1"/><path d="M495,451L478,590L580,500Z" fill="#87c3eb" stroke="#87c3eb" fill-opacity="1" stroke-opacity="1"/><path d="M580,500L478,590L622,559Z" fill="#7bbbe7" stroke="#7bbbe7" fill-opacity="1" stroke-opacity="1"/><path d="M580,500L622,559L669,468Z" fill="#7dbee9" stroke="#7dbee9" fill-opacity="1" stroke-opacity="1"/><path d="M669,468L622,559L731,561Z" fill="#74b9e7" stroke="#74b9e7" fill-opacity="1" stroke-opacity="1"/><path d="M669,468L731,561L854,477Z" fill="#72bae8" stroke="#72bae8" fill-opacity="1" stroke-opacity="1"/><path d="M854,477L731,561L888,545Z" fill="#66b2e4" stroke="#66b2e4" fill-opacity="1" stroke-opacity="1"/><path d="M854,477L888,545L929,500Z" fill="#64b1e3" stroke="#64b1e3" fill-opacity="1" stroke-opacity="1"/><path d="M929,500L888,545L973,579Z" fill="#5aa8df" stroke="#5aa8df" fill-opacity="1" stroke-opacity="1"/><path d="M929,500L973,579L1059,429Z" fill="#5caadf" stroke="#5caadf" fill-opacity="1" stroke-opacity="1"/><path d="M1059,429L973,579L1053,626Z" fill="#50a1da" stroke="#50a1da" fill-opacity="1" stroke-opacity="1"/><path d="M1059,429L1053,626L1188,482Z" fill="#50a0db" stroke="#50a0db" fill-opacity="1" stroke-opacity="1"/><path d="M1188,482L1053,626L1136,674Z" fill="#3e92d2" stroke="#3e92d2" fill-opacity="1" stroke-opacity="1"/><path d="M1188,482L1136,674L1286,608Z" fill="#388dcf" stroke="#388dcf" fill-opacity="1" stroke-opacity="1"/><path d="M1188,482L1286,608L1320,552Z" fill="#3b8fd1" stroke="#3b8fd1" fill-opacity="1" stroke-opacity="1"/><path d="M1408,414L1320,552L1525,542Z" fill="#368bcf" stroke="#368bcf" fill-opacity="1" stroke-opacity="1"/><path d="M1408,414L1525,542L1524,453Z" fill="#3a8bcf" stroke="#3a8bcf" fill-opacity="1" stroke-opacity="1"/><path d="M1524,453L1525,542L1624,455Z" fill="#3884cb" stroke="#3884cb" fill-opacity="1" stroke-opacity="1"/><path d="M1624,455L1525,542L1573,583Z" fill="#2f7cc6" stroke="#2f7cc6" fill-opacity="1" stroke-opacity="1"/><path d="M1624,455L1573,583L1744,578Z" fill="#2d75c3" stroke="#2d75c3" fill-opacity="1" stroke-opacity="1"/><path d="M1624,455L1744,578L1721,429Z" fill="#3779c5" stroke="#3779c5" fill-opacity="1" stroke-opacity="1"/><path d="M1721,429L1744,578L1799,727Z" fill="#2566bb" stroke="#2566bb" fill-opacity="1" stroke-opacity="1"/><path d="M-114,531L-42,980L-42,883Z" fill="#7ca9e0" stroke="#7ca9e0" fill-opacity="1" stroke-opacity="1"/><path d="M-114,531L-42,883L-24,756Z" fill="#83b6e6" stroke="#83b6e6" fill-opacity="1" stroke-opacity="1"/><path d="M-114,531L-24,756L19,690Z" fill="#8fc0ec" stroke="#8fc0ec" fill-opacity="1" stroke-opacity="1"/><path d="M-114,531L19,690L18,600Z" fill="#98c7f1" stroke="#98c7f1" fill-opacity="1" stroke-opacity="1"/><path d="M18,600L19,690L236,625Z" fill="#8bbeeb" stroke="#8bbeeb" fill-opacity="1" stroke-opacity="1"/><path d="M236,625L19,690L249,748Z" fill="#7cb4e5" stroke="#7cb4e5" fill-opacity="1" stroke-opacity="1"/><path d="M236,625L249,748L373,724Z" fill="#73aee1" stroke="#73aee1" fill-opacity="1" stroke-opacity="1"/><path d="M236,625L373,724L365,594Z" fill="#7bb5e4" stroke="#7bb5e4" fill-opacity="1" stroke-opacity="1"/><path d="M365,594L373,724L472,712Z" fill="#71aedf" stroke="#71aedf" fill-opacity="1" stroke-opacity="1"/><path d="M365,594L472,712L478,590Z" fill="#77b3e2" stroke="#77b3e2" fill-opacity="1" stroke-opacity="1"/><path d="M478,590L472,712L553,732Z" fill="#67a9dd" stroke="#67a9dd" fill-opacity="1" stroke-opacity="1"/><path d="M478,590L553,732L622,559Z" fill="#6dafe0" stroke="#6dafe0" fill-opacity="1" stroke-opacity="1"/><path d="M622,559L553,732L744,748Z" fill="#5aa2da" stroke="#5aa2da" fill-opacity="1" stroke-opacity="1"/><path d="M622,559L744,748L731,561Z" fill="#5fa8de" stroke="#5fa8de" fill-opacity="1" stroke-opacity="1"/><path d="M731,561L744,748L888,545Z" fill="#57a5dc" stroke="#57a5dc" fill-opacity="1" stroke-opacity="1"/><path d="M888,545L744,748L877,760Z" fill="#4697d5" stroke="#4697d5" fill-opacity="1" stroke-opacity="1"/><path d="M888,545L877,760L980,684Z" fill="#4395d4" stroke="#4395d4" fill-opacity="1" stroke-opacity="1"/><path d="M888,545L980,684L973,579Z" fill="#4c9dd9" stroke="#4c9dd9" fill-opacity="1" stroke-opacity="1"/><path d="M973,579L980,684L1053,626Z" fill="#4294d4" stroke="#4294d4" fill-opacity="1" stroke-opacity="1"/><path d="M1053,626L980,684L1136,674Z" fill="#378ccf" stroke="#378ccf" fill-opacity="1" stroke-opacity="1"/><path d="M1286,608L1136,674L1249,741Z" fill="#257dc7" stroke="#257dc7" fill-opacity="1" stroke-opacity="1"/><path d="M1286,608L1249,741L1339,684Z" fill="#1e77c5" stroke="#1e77c5" fill-opacity="1" stroke-opacity="1"/><path d="M1286,608L1339,684L1320,552Z" fill="#2980c9" stroke="#2980c9" fill-opacity="1" stroke-opacity="1"/><path d="M1320,552L1339,684L1525,542Z" fill="#267ec8" stroke="#267ec8" fill-opacity="1" stroke-opacity="1"/><path d="M1525,542L1339,684L1531,722Z" fill="#1770c0" stroke="#1770c0" fill-opacity="1" stroke-opacity="1"/><path d="M1525,542L1531,722L1573,583Z" fill="#1d70c0" stroke="#1d70c0" fill-opacity="1" stroke-opacity="1"/><path d="M1573,583L1531,722L1635,766Z" fill="#0e61b8" stroke="#0e61b8" fill-opacity="1" stroke-opacity="1"/><path d="M1573,583L1635,766L1744,578Z" fill="#1863b9" stroke="#1863b9" fill-opacity="1" stroke-opacity="1"/><path d="M1744,578L1635,766L1799,727Z" fill="#0e56b2" stroke="#0e56b2" fill-opacity="1" stroke-opacity="1"/><path d="M-24,756L-42,883L60,856Z" fill="#78a2dd" stroke="#78a2dd" fill-opacity="1" stroke-opacity="1"/><path d="M-24,756L60,856L19,690Z" fill="#77ace2" stroke="#77ace2" fill-opacity="1" stroke-opacity="1"/><path d="M19,690L60,856L188,858Z" fill="#72a4dd" stroke="#72a4dd" fill-opacity="1" stroke-opacity="1"/><path d="M19,690L188,858L249,748Z" fill="#6fa8de" stroke="#6fa8de" fill-opacity="1" stroke-opacity="1"/><path d="M249,748L188,858L312,805Z" fill="#699ed8" stroke="#699ed8" fill-opacity="1" stroke-opacity="1"/><path d="M249,748L312,805L373,724Z" fill="#66a3da" stroke="#66a3da" fill-opacity="1" stroke-opacity="1"/><path d="M373,724L312,805L434,795Z" fill="#629fd7" stroke="#629fd7" fill-opacity="1" stroke-opacity="1"/><path d="M373,724L434,795L472,712Z" fill="#62a2d9" stroke="#62a2d9" fill-opacity="1" stroke-opacity="1"/><path d="M472,712L434,795L553,732Z" fill="#5b9fd7" stroke="#5b9fd7" fill-opacity="1" stroke-opacity="1"/><path d="M553,732L434,795L624,805Z" fill="#5397d3" stroke="#5397d3" fill-opacity="1" stroke-opacity="1"/><path d="M553,732L624,805L744,748Z" fill="#4994d3" stroke="#4994d3" fill-opacity="1" stroke-opacity="1"/><path d="M744,748L624,805L668,832Z" fill="#458dcf" stroke="#458dcf" fill-opacity="1" stroke-opacity="1"/><path d="M744,748L668,832L866,857Z" fill="#3e87cc" stroke="#3e87cc" fill-opacity="1" stroke-opacity="1"/><path d="M744,748L866,857L877,760Z" fill="#3787cc" stroke="#3787cc" fill-opacity="1" stroke-opacity="1"/><path d="M877,760L866,857L1016,798Z" fill="#2f7ec8" stroke="#2f7ec8" fill-opacity="1" stroke-opacity="1"/><path d="M877,760L1016,798L980,684Z" fill="#2e85cb" stroke="#2e85cb" fill-opacity="1" stroke-opacity="1"/><path d="M980,684L1016,798L1136,674Z" fill="#2c83ca" stroke="#2c83ca" fill-opacity="1" stroke-opacity="1"/><path d="M1136,674L1016,798L1067,869Z" fill="#2177c4" stroke="#2177c4" fill-opacity="1" stroke-opacity="1"/><path d="M1136,674L1067,869L1249,741Z" fill="#1a74c3" stroke="#1a74c3" fill-opacity="1" stroke-opacity="1"/><path d="M1249,741L1067,869L1263,860Z" fill="#1767bb" stroke="#1767bb" fill-opacity="1" stroke-opacity="1"/><path d="M1249,741L1263,860L1311,826Z" fill="#0f64b9" stroke="#0f64b9" fill-opacity="1" stroke-opacity="1"/><path d="M1249,741L1311,826L1339,684Z" fill="#106bbe" stroke="#106bbe" fill-opacity="1" stroke-opacity="1"/><path d="M1339,684L1311,826L1531,722Z" fill="#0866ba" stroke="#0866ba" fill-opacity="1" stroke-opacity="1"/><path d="M1531,722L1311,826L1525,840Z" fill="#0059b4" stroke="#0059b4" fill-opacity="1" stroke-opacity="1"/><path d="M1531,722L1525,840L1635,766Z" fill="#0054b1" stroke="#0054b1" fill-opacity="1" stroke-opacity="1"/><path d="M1635,766L1525,840L1571,898Z" fill="#0049ab" stroke="#0049ab" fill-opacity="1" stroke-opacity="1"/><path d="M1635,766L1571,898L1750,925Z" fill="#003fa6" stroke="#003fa6" fill-opacity="1" stroke-opacity="1"/><path d="M1635,766L1750,925L1751,802Z" fill="#0040a6" stroke="#0040a6" fill-opacity="1" stroke-opacity="1"/><path d="M1635,766L1751,802L1799,727Z" fill="#004aab" stroke="#004aab" fill-opacity="1" stroke-opacity="1"/><path d="M1799,727L1751,802L1750,925Z" fill="#003ea5" stroke="#003ea5" fill-opacity="1" stroke-opacity="1"/><path d="M-42,883L-42,980L60,856Z" fill="#7896d6" stroke="#7896d6" fill-opacity="1" stroke-opacity="1"/><path d="M60,856L-42,980L100,974Z" fill="#758fd3" stroke="#758fd3" fill-opacity="1" stroke-opacity="1"/><path d="M60,856L100,974L169,959Z" fill="#718ed1" stroke="#718ed1" fill-opacity="1" stroke-opacity="1"/><path d="M60,856L169,959L188,858Z" fill="#6f94d4" stroke="#6f94d4" fill-opacity="1" stroke-opacity="1"/><path d="M188,858L169,959L317,972Z" fill="#6a8ace" stroke="#6a8ace" fill-opacity="1" stroke-opacity="1"/><path d="M188,858L317,972L312,805Z" fill="#6891d1" stroke="#6891d1" fill-opacity="1" stroke-opacity="1"/><path d="M312,805L317,972L434,795Z" fill="#6392d1" stroke="#6392d1" fill-opacity="1" stroke-opacity="1"/><path d="M434,795L317,972L407,1019Z" fill="#6185c9" stroke="#6185c9" fill-opacity="1" stroke-opacity="1"/><path d="M434,795L407,1019L546,972Z" fill="#5b82c7" stroke="#5b82c7" fill-opacity="1" stroke-opacity="1"/><path d="M434,795L546,972L624,805Z" fill="#548acc" stroke="#548acc" fill-opacity="1" stroke-opacity="1"/><path d="M624,805L546,972L668,832Z" fill="#4c84ca" stroke="#4c84ca" fill-opacity="1" stroke-opacity="1"/><path d="M668,832L546,972L752,965Z" fill="#487ac4" stroke="#487ac4" fill-opacity="1" stroke-opacity="1"/><path d="M668,832L752,965L866,857Z" fill="#3d7bc5" stroke="#3d7bc5" fill-opacity="1" stroke-opacity="1"/><path d="M866,857L752,965L812,1005Z" fill="#396fbf" stroke="#396fbf" fill-opacity="1" stroke-opacity="1"/><path d="M866,857L812,1005L998,945Z" fill="#316bbd" stroke="#316bbd" fill-opacity="1" stroke-opacity="1"/><path d="M866,857L998,945L1016,798Z" fill="#2b71c1" stroke="#2b71c1" fill-opacity="1" stroke-opacity="1"/><path d="M1016,798L998,945L1067,869Z" fill="#256cbe" stroke="#256cbe" fill-opacity="1" stroke-opacity="1"/><path d="M1067,869L998,945L1139,967Z" fill="#225fb7" stroke="#225fb7" fill-opacity="1" stroke-opacity="1"/><path d="M1067,869L1139,967L1263,860Z" fill="#1a5eb6" stroke="#1a5eb6" fill-opacity="1" stroke-opacity="1"/><path d="M1263,860L1139,967L1280,1005Z" fill="#1451b0" stroke="#1451b0" fill-opacity="1" stroke-opacity="1"/><path d="M1263,860L1280,1005L1336,988Z" fill="#0e4bac" stroke="#0e4bac" fill-opacity="1" stroke-opacity="1"/><path d="M1263,860L1336,988L1311,826Z" fill="#0d54b1" stroke="#0d54b1" fill-opacity="1" stroke-opacity="1"/><path d="M1311,826L1336,988L1498,976Z" fill="#0648aa" stroke="#0648aa" fill-opacity="1" stroke-opacity="1"/><path d="M1311,826L1498,976L1525,840Z" fill="#004bac" stroke="#004bac" fill-opacity="1" stroke-opacity="1"/><path d="M1525,840L1498,976L1571,898Z" fill="#0042a7" stroke="#0042a7" fill-opacity="1" stroke-opacity="1"/><path d="M1571,898L1498,976L1678,976Z" fill="#0036a1" stroke="#0036a1" fill-opacity="1" stroke-opacity="1"/><path d="M1571,898L1678,976L1750,925Z" fill="#00339f" stroke="#00339f" fill-opacity="1" stroke-opacity="1"/><path d="M-42,980L407,1019L100,974Z" fill="#6f83ca" stroke="#6f83ca" fill-opacity="1" stroke-opacity="1"/><path d="M100,974L407,1019L169,959Z" fill="#6a82c9" stroke="#6a82c9" fill-opacity="1" stroke-opacity="1"/><path d="M169,959L407,1019L317,972Z" fill="#667fc7" stroke="#667fc7" fill-opacity="1" stroke-opacity="1"/><path d="M407,1019L1280,1005L812,1005Z" fill="#3663b9" stroke="#3663b9" fill-opacity="1" stroke-opacity="1"/><path d="M407,1019L812,1005L546,972Z" fill="#4e71bf" stroke="#4e71bf" fill-opacity="1" stroke-opacity="1"/><path d="M546,972L812,1005L752,965Z" fill="#436ebe" stroke="#436ebe" fill-opacity="1" stroke-opacity="1"/><path d="M812,1005L1280,1005L1139,967Z" fill="#2154b1" stroke="#2154b1" fill-opacity="1" stroke-opacity="1"/><path d="M812,1005L1139,967L998,945Z" fill="#295eb7" stroke="#295eb7" fill-opacity="1" stroke-opacity="1"/><path d="M1280,1005L1678,976L1498,976Z" fill="#0037a1" stroke="#0037a1" fill-opacity="1" stroke-opacity="1"/><path d="M1280,1005L1498,976L1336,988Z" fill="#073fa6" stroke="#073fa6" fill-opacity="1" stroke-opacity="1"/></g></svg>