<svg width="512" height="512" xmlns="http://www.w3.org/2000/svg">
 <g>
  <title>Layer 1</title>
  <path fill="white" id="svg_1" d="m74.966003,437.013c-99.970003,-99.970001 -99.970003,-262.065002 0,-362.037003c100.001999,-99.969997 262.06601,-99.969997 362.066986,0c99.971039,99.971008 99.971039,262.067001 0,362.037003c-100.000977,99.984985 -262.064987,99.984985 -362.066986,0zm316.81601,-316.786003c-75.001007,-74.984997 -196.564011,-74.984997 -271.534012,0c-75.000999,74.985008 -75.000999,196.550011 0,271.534996c74.970001,74.985992 196.533005,74.985992 271.534012,0c74.971985,-74.987 74.971985,-196.549988 0,-271.534996zm-203.65802,248.909996l-45.250992,-45.265991l67.875992,-67.876999l-67.875992,-67.876007l45.250992,-45.266998l67.876007,67.891998l67.877014,-67.891998l45.25,45.266998l-67.876007,67.876007l67.876007,67.876999l-45.25,45.265991l-67.877014,-67.891998l-67.876007,67.891998z"/>
 </g>
</svg>